<svg xmlns="http://www.w3.org/2000/svg" viewBox="0 0 1200 760"><rect width="1200" height="760" rx="34" fill="#EDE8DE"/><circle cx="980" cy="120" r="170" fill="#D8E4E1"/><circle cx="1040" cy="610" r="210" fill="#F3D8D0"/><path d="M70 610C180 470 250 500 350 570S560 690 690 585 850 390 1110 480" fill="none" stroke="#C84D3A" stroke-width="10" opacity=".85"/><rect x="155" y="125" width="610" height="420" rx="24" fill="#FDFBF6" stroke="#1D2A44" stroke-width="8"/><rect x="205" y="180" width="260" height="18" rx="9" fill="#C84D3A"/><rect x="205" y="225" width="440" height="13" rx="6" fill="#B8C1C7"/><rect x="205" y="260" width="380" height="13" rx="6" fill="#D3D8DB"/><g fill="#1D2A44"><rect x="205" y="330" width="34" height="34" rx="8"/><rect x="270" y="330" width="210" height="14" rx="7"/><rect x="270" y="352" width="170" height="12" rx="6" fill="#B8C1C7"/><rect x="205" y="400" width="34" height="34" rx="8"/><rect x="270" y="400" width="250" height="14" rx="7"/><rect x="270" y="422" width="195" height="12" rx="6" fill="#B8C1C7"/></g><path d="M855 330l42 42 86-108" fill="none" stroke="#497464" stroke-width="24" stroke-linecap="round" stroke-linejoin="round"/><circle cx="850" cy="490" r="76" fill="#1D2A44"/><path d="M816 495h68M850 461v68" stroke="#F7F3EC" stroke-width="10" stroke-linecap="round"/><text x="640" y="615" font-family="Arial,sans-serif" font-size="30" font-weight="700" fill="#1D2A44">ESTUDO • PRÁTICA • RESULTADO</text></svg>
